Coordinates
version=1
nRows=29
nColumns=22
inDegrees=yes

Units are S.I. units (second, meters, Newtons, ...)
If the header above contains a line with 'inDegrees', this indicates whether rotational values are in degrees (yes) or radians (no).

endheader
time	pelvis_tilt	pelvis_list	pelvis_rotation	pelvis_tx	pelvis_ty	pelvis_tz	hip_flexion_r	hip_adduction_r	hip_rotation_r	knee_angle_r	ankle_angle_r	subtalar_angle_r	hip_flexion_l	hip_adduction_l	hip_rotation_l	knee_angle_l	ankle_angle_l	subtalar_angle_l	lumbar_extension	lumbar_bending	lumbar_rotation
      3.44000000	     -1.23723488	      9.69902233	    172.22799715	      0.20998621	      0.91347039	     -0.51197618	     11.77307932	      5.64274501	     -3.88171289	    -19.97460830	      0.53483287	     10.84881309	      8.49521547	    -10.62746212	     -1.73302260	    -66.46269837	    -11.21688399	    -11.14389415	     -8.17100136	      5.18639866	      1.24441130
      3.45000000	     -1.40747564	      9.63818086	    173.09857858	      0.20339184	      0.91480027	     -0.51404417	     10.83272848	      5.59265643	     -4.62680432	    -19.43463096	      0.87208308	     10.65990967	     10.06570347	    -10.77901410	     -1.95235178	    -68.08065405	    -11.09208569	    -10.66302375	     -8.35457365	      5.07029624	      1.60234258
      3.46000000	     -1.60197157	      9.47334949	    173.88252790	      0.19679060	      0.91619645	     -0.51595746	      9.88749590	      5.45576224	     -5.26321707	    -18.90881239	      1.21949591	     10.46030389	     11.51595497	    -10.76287912	     -2.28635675	    -69.37058958	    -10.71897064	    -10.18633485	     -8.54636233	      4.84468623	      2.02111809
      3.47000000	     -1.82422546	      9.21036131	    174.54358578	      0.19019005	      0.91766151	     -0.51775401	      8.93343393	      5.24041261	     -5.71285459	    -18.40515790	      1.60467837	     10.39880330	     12.81925778	    -10.61286871	     -2.80067367	    -70.32964753	    -10.09280836	     -9.93191227	     -8.76127213	      4.51757826	      2.54593720
      3.48000000	     -2.08244742	      8.83969664	    175.18881549	      0.18354557	      0.91918622	     -0.51928979	      7.97805416	      4.89698439	     -6.25110964	    -17.95981225	      1.97465610	     10.17161781	     13.99672660	    -10.28416445	     -3.35067300	    -70.96709362	     -9.40485090	     -9.49067981	     -8.99291392	      4.08293772	      3.04222553
      3.49000000	     -2.32167477	      8.40083437	    175.70687768	      0.17693101	      0.92067554	     -0.52077394	      7.06457789	      4.50828957	     -6.58570968	    -17.54618024	      2.36207963	     10.04193957	     15.07803143	     -9.88555589	     -4.06495178	    -71.30754509	     -8.55415339	     -9.19900394	     -9.20512140	      3.57884375	      3.62632540
      3.50000000	     -2.55548156	      7.90314991	    176.15771857	      0.17031524	      0.92211533	     -0.52213391	      6.19057003	      4.05667131	     -6.88661961	    -17.19765322	      2.76083536	      9.92501252	     16.06740394	     -9.41848667	     -4.87216678	    -71.36738981	     -7.62073507	     -8.94920634	     -9.40783804	      3.01871092	      4.22336138
      3.51000000	     -2.78495124	      7.37105397	    176.55030366	      0.16371498	      0.92349127	     -0.52338487	      5.33916602	      3.57076009	     -7.11808625	    -16.88681885	      3.13713199	      9.78131915	     16.96847082	     -8.91519606	     -5.74414384	    -71.16155150	     -6.63475727	     -8.69471775	     -9.60833915	      2.43128045	      4.81784002
      3.52000000	     -2.97901285	      6.85398508	    176.89710430	      0.15716777	      0.92470899	     -0.52456097	      4.55860087	      3.09983237	     -7.33245104	    -16.64934993	      3.50996718	      9.65762881	     17.83515795	     -8.44222678	     -6.64589120	    -70.72950854	     -5.60527396	     -8.46076442	     -9.78313365	      1.86838241	      5.43526457
      3.53000000	     -3.15228876	      6.36533993	    177.21936356	      0.15063616	      0.92578361	     -0.52567460	      3.80244788	      2.66221859	     -7.51073634	    -16.43061737	      3.84124976	      9.51144506	     18.65212285	     -8.01856342	     -7.55340441	    -70.07844973	     -4.56098243	     -8.19791595	     -9.94243151	      1.34377187	      6.02885197
      3.54000000	     -3.29746688	      5.92620527	    177.52432090	      0.14411959	      0.92667928	     -0.52674686	      3.07642194	      2.28096934	     -7.68457568	    -16.22556251	      4.15809700	      9.35023584	     19.43202617	     -7.67310302	     -8.45020307	    -69.22376660	     -3.52745234	     -7.90405564	    -10.08248472	      0.87667960	      6.60137875
      3.55000000	     -3.41652816	      5.54516144	    177.82419938	      0.13758594	      0.92737594	     -0.52777536	      2.36977780	      1.96539110	     -7.87140359	    -16.01933977	      4.47283899	      9.17511077	     20.17537765	     -7.41644141	     -9.32212492	    -68.18018860	     -2.51887526	     -7.59179360	    -10.19912795	      0.47582592	      7.15189918
      3.56000000	     -3.52427440	      5.22502345	    178.12963630	      0.13101154	      0.92790029	     -0.52875752	      1.65381289	      1.72025677	     -8.08586768	    -15.78325301	      4.76590361	      8.95961352	     20.86260796	     -7.24923998	    -10.16016407	    -66.94625305	     -1.55760352	     -7.26382814	    -10.30778163	      0.14224607	      7.65960338
      3.57000000	     -3.59085378	      4.96922611	    178.42049437	      0.12440274	      0.92818209	     -0.52972230	      0.98525802	      1.54622396	     -8.32135244	    -15.56544669	      5.13305179	      8.80374316	     21.53045039	     -7.18732899	    -10.98927645	    -65.54207662	     -0.65995018	     -7.05316092	    -10.37181427	     -0.12480333	      8.17228768
      3.58000000	     -3.66277252	      4.76556174	    178.71591353	      0.11774088	      0.92832657	     -0.53062151	      0.29446975	      1.43053393	     -8.57418301	    -15.32319710	      5.48337892	      8.62634088	     22.11694029	     -7.19954806	    -11.79588469	    -63.94750640	      0.17070626	     -6.91140081	    -10.44517985	     -0.33611814	      8.65189746
      3.59000000	     -3.72258802	      4.61440636	    179.01014166	      0.11101837	      0.92830918	     -0.53146880	     -0.38605629	      1.37286024	     -8.83627977	    -15.08481055	      5.84312485	      8.47176375	     22.63808530	     -7.28637202	    -12.59127589	    -62.16492297	      0.92765531	     -6.87927465	    -10.50348659	     -0.49552085	      9.10855704
      3.60000000	     -3.78159791	      4.50023129	    179.29811136	      0.10422917	      0.92816471	     -0.53225534	     -1.06325526	      1.35409279	     -9.09793541	    -14.85903337	      6.21347930	      8.33837857	     23.07147405	     -7.42811730	    -13.39803493	    -60.18425412	      1.60370233	     -6.94586753	    -10.55865125	     -0.61943438	      9.54100205
      3.61000000	     -3.84344144	      4.41253584	    179.58350232	      0.09736900	      0.92791149	     -0.53293688	     -1.73867308	      1.36018916	     -9.35493831	    -14.65000756	      6.59034955	      8.22739057	     23.40625181	     -7.59711853	    -14.21695983	    -57.99861409	      2.19442659	     -7.09171779	    -10.61413349	     -0.71618420	      9.97039456
      3.62000000	     -3.90205089	      4.34484969	    179.86541401	      0.09043203	      0.92755156	     -0.53352239	     -2.39644769	      1.38439254	     -9.59790246	    -14.47795957	      6.97407317	      8.14602459	     23.64349092	     -7.78574113	    -15.07235002	    -55.60665946	      2.70456191	     -7.27813994	    -10.65956160	     -0.79581622	     10.38162478
      3.63000000	     -3.96633143	      4.28394169	    180.14098654	      0.08340209	      0.92711147	     -0.53398203	     -3.04583096	      1.40944226	     -9.82337901	    -14.34432148	      7.35854314	      8.08665386	     23.76606091	     -7.97413136	    -15.99386602	    -53.00796000	      3.11264473	     -7.49189640	    -10.70231320	     -0.86783125	     10.78197795
      3.64000000	     -4.02564201	      4.22304232	    180.40039264	      0.07627505	      0.92657657	     -0.53432336	     -3.66868071	      1.42606560	    -10.01812120	    -14.26385436	      7.75470417	      8.05084259	     23.78442309	     -8.15608061	    -17.01711192	    -50.21665064	      3.43278206	     -7.70320781	    -10.72852645	     -0.94232334	     11.16563868
      3.65000000	     -4.07993578	      4.15744127	    180.63740748	      0.06904524	      0.92595357	     -0.53453220	     -4.26838519	      1.42803007	    -10.18029464	    -14.22849541	      8.16420152	      8.03299611	     23.70172922	     -8.31937129	    -18.16752186	    -47.25139536	      3.64204303	     -7.90409573	    -10.73731950	     -1.02202541	     11.54014367
      3.66000000	     -4.13870356	      4.08506439	    180.85158892	      0.06169123	      0.92525148	     -0.53459663	     -4.85924503	      1.41104916	    -10.31708074	    -14.23353403	      8.58133615	      8.02970918	     23.51808083	     -8.45990119	    -19.47600276	    -44.14910580	      3.74221892	     -8.09081123	    -10.73774969	     -1.10692042	     11.89177668
      3.67000000	     -4.21088558	      4.00311138	    181.04399206	      0.05420825	      0.92447686	     -0.53448651	     -5.45316313	      1.36876988	    -10.44405186	    -14.27676079	      8.99485204	      8.04240022	     23.23843943	     -8.56440313	    -20.95459846	    -40.94926794	      3.77481758	     -8.24864072	    -10.74008185	     -1.19624151	     12.21915563
      3.68000000	     -4.22230125	      3.90813665	    181.18970805	      0.04664162	      0.92350873	     -0.53423468	     -5.95768606	      1.29331988	    -10.50468993	    -14.37716377	      9.48899962	      8.07038482	     22.97087337	     -8.61866170	    -22.57594696	    -37.70823755	      3.72220247	     -8.31085796	    -10.66005960	     -1.30220399	     12.57450248
      3.69000000	     -4.27808720	      3.80117167	    181.33368971	      0.03894918	      0.92250390	     -0.53375439	     -6.51346539	      1.18733543	    -10.60370614	    -14.48863989	      9.94027712	      8.12183058	     22.62167611	     -8.61502938	    -24.34538797	    -34.47513435	      3.67437453	     -8.29966911	    -10.62055516	     -1.40858543	     12.85842229
      3.70000000	     -4.26375989	      3.69148413	    181.45375505	      0.03121942	      0.92127659	     -0.53308996	     -6.97335510	      1.05728258	    -10.66381404	    -14.64905762	     10.46386525	      8.19549461	     22.35916401	     -8.55433168	    -26.17984842	    -31.32666774	      3.60417510	     -8.16487980	    -10.49835076	     -1.51297057	     13.12077939
      3.71000000	     -4.25692036	      3.57661132	    181.57741534	      0.02342804	      0.91995703	     -0.53219235	     -7.44263657	      0.90105390	    -10.76496149	    -14.81914571	     10.95720701	      8.30886775	     22.10986358	     -8.42002467	    -27.99855953	    -28.28868548	      3.59614847	     -7.88586886	    -10.38251418	     -1.61473384	     13.35212746
      3.72000000	     -4.20807018	      3.46976569	    181.70254282	      0.01562529	      0.91846572	     -0.53109745	     -7.85756588	      0.73462206	    -10.87455972	    -15.01508734	     11.46724811	      8.46008321	     21.95662213	     -8.23480499	    -29.73108819	    -25.42381985	      3.64269813	     -7.46971188	    -10.22287313	     -1.70261980	     13.53665695
